<svg width="100" height="30" viewBox="0 0 100 30" fill="currentColor">
  <path d="M64.7 26.0667C59.0333 30.2667 50.7 32.5333 43.5 32.5333C33.3667 32.5333 24.3667 28.9 17.7 22.7667C17.1667 22.2667 17.6333 21.6 18.2667 22C25.4333 26.3333 34.5 28.9 43.8667 28.9C50.1667 28.9 57.2333 27.4333 63.6333 24.3667C64.6333 23.9 65.4667 25.1333 64.7 26.0667Z" transform="scale(0.9)" />
  <path d="M67.6333 22.7C66.9 21.7667 62.3667 22.3 60.3667 22.5667C59.8333 22.6333 59.7667 22.1667 60.2333 21.8333C63.7 19.4333 69.5667 20.1667 70.1667 20.9667C70.7667 21.7667 70.0333 27.8333 66.8333 30.5C66.3667 30.9 65.9333 30.7 66.1333 30.2C66.9 28.3 68.3667 23.6333 67.6333 22.7Z" transform="scale(0.9)" />
  <path d="M60.5667 6.7V3.63333C60.5667 3.23333 60.9 2.96667 61.2667 2.96667H72.0333C72.4333 2.96667 72.7667 3.26667 72.7667 3.63333V6.3C72.7667 6.7 72.4 7.16667 71.8333 7.9L66.3 15.9C68.5 15.8333 70.8333 16.1667 72.7333 17.3C73.2 17.5667 73.3333 17.9667 73.3667 18.3667V21.6333C73.3667 22.0333 72.9333 22.5 72.5 22.2667C69.1333 20.3667 64.6333 20.1333 60.8333 22.3C60.4333 22.5 60 22.0667 60 21.6667V18.5C60 18.0333 60 17.1667 60.5 16.3667L67 7.36667H61.2667C60.8667 7.36667 60.5667 7.06667 60.5667 6.7Z" transform="scale(0.9)" />
  <path d="M21.7667 19.1333H18.5333C18.1667 19.1 17.8667 18.8333 17.8333 18.5V3.7C17.8333 3.33333 18.1667 3.03333 18.5667 3.03333H21.5667C21.9333 3.06667 22.2333 3.33333 22.2667 3.66667V6.53333H22.3333C23.1667 4.36667 24.7 3.03333 26.7667 3.03333C28.8667 3.03333 30.1333 4.36667 31.0333 6.53333C31.8667 4.36667 33.7333 3.03333 35.7 3.03333C37.1 3.03333 38.6333 3.7 39.5333 5.03333C40.5667 6.53333 40.3 8.7 40.3 10.6333L40.2667 18.4333C40.2667 18.8 39.9333 19.1333 39.5333 19.1333H36.3C35.9333 19.1 35.6 18.8 35.6 18.4333V12.1333C35.6 11.5 35.6667 9.7 35.5 9.1C35.2667 8.03333 34.5667 7.7 33.7 7.7C33 7.7 32.2333 8.16667 31.9333 8.9C31.6333 9.63333 31.6667 10.8333 31.6667 11.5V18.4333C31.6667 18.8 31.3333 19.1333 30.9333 19.1333H27.7C27.3333 19.1 27 18.8 27 18.4333L26.9667 12.1333C26.9667 10.6333 27.2 7.66667 25.0333 7.66667C22.8333 7.66667 22.9667 10.5333 22.9667 12.1333V18.4333C22.9667 18.8 22.6333 19.1333 22.2333 19.1333H21.7667Z" transform="scale(0.9)" />
  <path d="M80.2333 3.03333C85.3667 3.03333 88 8.03333 88 14.3C88 20.3 84.9667 25.1333 80.2333 25.1333C75.2333 25.1333 72.6333 20.1333 72.6333 14C72.6333 7.83333 75.2667 3.03333 80.2333 3.03333ZM80.2667 7.03333C77.9 7.03333 77.7333 10.1333 77.7333 12.3C77.7333 14.5 77.7 21.1667 80.2333 21.1667C82.7333 21.1667 82.9 16.1667 82.9 13.8333C82.9 12.3 82.8333 10.5 82.4 9.06667C82.0333 7.83333 81.3 7.03333 80.2667 7.03333Z" transform="scale(0.9)" />
  <path d="M91.8667 19.1333H88.6667C88.3 19.1 87.9667 18.8 87.9667 18.4333L87.9333 3.63333C87.9667 3.3 88.3 3 88.7 3H91.7C92.0333 3.03333 92.3 3.26667 92.3667 3.56667V6.7H92.4333C93.4333 4.36667 94.8 3.03333 97.0333 3.03333C98.5 3.03333 99.9333 3.56667 100.833 5C101.667 6.33333 101.667 8.63333 101.667 10.3V18.5C101.633 18.8333 101.3 19.1333 100.933 19.1333H97.7C97.3667 19.1 97.0667 18.8333 97.0333 18.5V11.9C97.0333 10.4333 97.2 7.7 95.0667 7.7C94.3667 7.7 93.7 8.16667 93.3667 8.86667C92.9333 9.76667 92.8667 10.6667 92.8667 11.9V18.4333C92.8333 18.8 92.5 19.1333 92.1 19.1333H91.8667Z" transform="scale(0.9)" />
  <path d="M54.1333 13.1C54.1333 14.7 54.1667 16.0333 53.3333 17.4667C52.6667 18.6333 51.6333 19.3667 50.4667 19.3667C48.9 19.3667 48 18.2 48 16.5C48 13.1667 51.1333 12.5667 54.1333 12.5667V13.1ZM57.3667 19.1C57.1 19.3333 56.7667 19.3667 56.4667 19.1667C55.3 18.1333 55.1333 17.7 54.5333 16.8333C52.3333 19.0333 50.8333 19.5667 47.9 19.5667C44.4333 19.5667 41.7333 17.4 41.7333 13.1C41.7333 9.7 43.5333 7.36667 46.1333 6.23333C48.3667 5.23333 51.4333 5.03333 53.8 4.73333V4.23333C53.8 3.23333 53.8667 2.06667 53.2667 1.23333C52.7333 0.5 51.7333 0.2 50.8667 0.2C49.2667 0.2 47.8333 1.03333 47.5 2.8C47.4333 3.2 47.1667 3.6 46.7667 3.63333L43.6333 3.26667C43.2667 3.2 42.8667 2.9 42.9667 2.4C43.8 -1.13333 47.4333 -2 50.7 -2C52.3667 -2 54.5 -1.6 55.8333 -0.466667C57.5 0.933333 57.3 2.86667 57.3 4.93333V10.9333C57.3 12.4 57.9 13.0667 58.4667 13.8667C58.7333 14.2333 58.8 14.6667 58.5 14.9667C57.9 15.5 56.8 16.5 56.2333 17.1L57.3667 19.1Z" transform="translate(0 10)" />
</svg>

