<svg width="120" height="20" viewBox="0 0 120 20" fill="currentColor">
  <path d="M11.0489 0C4.9429 0 0 4.9429 0 11.0489C0 17.1548 4.9429 22.0977 11.0489 22.0977C17.1548 22.0977 22.0977 17.1548 22.0977 11.0489C22.0977 4.9429 17.1548 0 11.0489 0ZM15.6684 9.0401L11.0489 13.6596L6.42933 9.0401H15.6684Z" transform="scale(0.9)" />
  <path d="M32.5 6H37.5L42.5 16H38.5L37.5 14H32.5L31.5 16H27.5L32.5 6ZM36.5 12L35 9L33.5 12H36.5Z" transform="scale(0.9)" />
  <path d="M44 6H48V14.5C48 15.3284 48.6716 16 49.5 16H54.5C55.3284 16 56 15.3284 56 14.5V6H60V14.5C60 17.5376 57.5376 20 54.5 20H49.5C46.4624 20 44 17.5376 44 14.5V6Z" transform="scale(0.9)" />
  <path d="M62 6H66V16H62V6Z" transform="scale(0.9)" />
  <path d="M68 6H72V12L77 6H82L76 13L82 20H77L72 14V20H68V6Z" transform="scale(0.9)" />
  <path d="M84 6H94C96.2091 6 98 7.79086 98 10V16H94V11C94 10.4477 93.5523 10 93 10H89C88.4477 10 88 10.4477 88 11V16H84V6Z" transform="scale(0.9)" />
  <path d="M100 6H110C112.209 6 114 7.79086 114 10V12C114 14.2091 112.209 16 110 16H104V20H100V6ZM104 12H109C109.552 12 110 11.5523 110 11V11C110 10.4477 109.552 10 109 10H104V12Z" transform="scale(0.9)" />
  <path d="M116 6H120V20H116V6Z" transform="scale(0.9)" />
</svg>

