<svg width="100" height="30" viewBox="0 0 100 30" fill="currentColor">
  <path d="M38.0239 10.2898C38.0239 4.60898 42.6149 0 48.3149 0C53.9949 0 58.6059 4.60898 58.6059 10.2898C58.6059 15.9706 53.9949 20.5796 48.3149 20.5796C42.6149 20.5796 38.0239 15.9706 38.0239 10.2898ZM44.1949 10.2898C44.1949 12.5788 46.0259 14.4098 48.3149 14.4098C50.6039 14.4098 52.4349 12.5788 52.4349 10.2898C52.4349 8.00082 50.6039 6.16982 48.3149 6.16982C46.0259 6.16982 44.1949 8.00082 44.1949 10.2898Z" />
  <path d="M22.1354 10.2898C22.1354 12.5788 20.3044 14.4098 18.0154 14.4098C15.7264 14.4098 13.8954 12.5788 13.8954 10.2898C13.8954 8.00082 15.7264 6.16982 18.0154 6.16982C20.3044 6.16982 22.1354 8.00082 22.1354 10.2898ZM7.72437 10.2898C7.72437 15.9706 3.13339 20.5796 -2.54661 20.5796C-8.24661 20.5796 -12.8376 15.9706 -12.8376 10.2898C-12.8376 4.60898 -8.24661 0 -2.54661 0C3.13339 0 7.72437 4.60898 7.72437 10.2898Z" transform="translate(12.8376)" />
  <path d="M7.72437 10.2898C7.72437 15.9706 3.13339 20.5796 -2.54661 20.5796C-8.24661 20.5796 -12.8376 15.9706 -12.8376 10.2898C-12.8376 4.60898 -8.24661 0 -2.54661 0C3.13339 0 7.72437 4.60898 7.72437 10.2898ZM-6.66661 10.2898C-6.66661 12.5788 -4.83561 14.4098 -2.54661 14.4098C-0.257613 14.4098 1.57339 12.5788 1.57339 10.2898C1.57339 8.00082 -0.257613 6.16982 -2.54661 6.16982C-4.83561 6.16982 -6.66661 8.00082 -6.66661 10.2898Z" transform="translate(92.2756 0.000061)" />
  <path d="M0 0.0898438H6.171V20.4898H0V0.0898438Z" transform="translate(63.6149 0.0898438)" />
  <path d="M0 0.0898438H6.171V20.4898H0V0.0898438Z" transform="translate(30.2146 0.0898438)" />
</svg>

