<svg width="80" height="20" viewBox="0 0 80 20" fill="currentColor">
  <path d="M13.5 4.5C10 4.5 7 7 7 10.5C7 14 10 16.5 13.5 16.5C17 16.5 20 14 20 10.5C20 7 17 4.5 13.5 4.5ZM13.5 14C11.5 14 10 12.5 10 10.5C10 8.5 11.5 7 13.5 7C15.5 7 17 8.5 17 10.5C17 12.5 15.5 14 13.5 14Z" />
  <path d="M30 5H27V16H30V5Z" />
  <path d="M37 5H34V16H37V12.5C37 10.5 39 9.5 41 9.5V5C39 5 37.5 6 37 7V5Z" />
  <path d="M48 5H45V16H48V5Z" />
  <path d="M55 5H52V16H55V12.5C55 10.5 57 9.5 59 9.5V5C57 5 55.5 6 55 7V5Z" />
  <path d="M66 4.5C62.5 4.5 59.5 7 59.5 10.5C59.5 14 62.5 16.5 66 16.5C69.5 16.5 72.5 14 72.5 10.5C72.5 7 69.5 4.5 66 4.5ZM66 14C64 14 62.5 12.5 62.5 10.5C62.5 8.5 64 7 66 7C68 7 69.5 8.5 69.5 10.5C69.5 12.5 68 14 66 14Z" />
</svg>

