<svg width="80" height="20" viewBox="0 0 80 20" fill="currentColor">
  <path d="M40 0C35.2 0 31.3 3.9 31.3 8.7C31.3 13.5 35.2 17.4 40 17.4C44.8 17.4 48.7 13.5 48.7 8.7C48.7 3.9 44.8 0 40 0ZM40 1.7C43.9 1.7 47 4.8 47 8.7C47 12.6 43.9 15.7 40 15.7C36.1 15.7 33 12.6 33 8.7C33 4.8 36.1 1.7 40 1.7Z" />
  <path d="M40 3.5L36.5 13.9H38.3L39.1 11.7H40.9L41.7 13.9H43.5L40 3.5ZM39.6 10L40 8.7L40.4 10H39.6Z" />
  <path d="M16.5 3.5L13 13.9H14.8L15.6 11.7H17.4L18.2 13.9H20L16.5 3.5ZM16.1 10L16.5 8.7L16.9 10H16.1Z" />
  <path d="M63.5 3.5L60 13.9H61.8L62.6 11.7H64.4L65.2 13.9H67L63.5 3.5ZM63.1 10L63.5 8.7L63.9 10H63.1Z" />
  <path d="M0 3.5V13.9H1.7V3.5H0Z" />
  <path d="M78.3 3.5V13.9H80V3.5H78.3Z" />
  <path d="M3.5 3.5V13.9H5.2V7.8L8.7 13.9H10.4V3.5H8.7V9.6L5.2 3.5H3.5Z" />
  <path d="M69.6 3.5V13.9H71.3V7.8L74.8 13.9H76.5V3.5H74.8V9.6L71.3 3.5H69.6Z" />
  <path d="M22.6 3.5V13.9H24.3V10H28.7V8.3H24.3V5.2H29.6V3.5H22.6Z" />
  <path d="M50.4 3.5V13.9H52.1V10H56.5V8.3H52.1V5.2H57.4V3.5H50.4Z" />
</svg>

